<?xml version="1.0" standalone="no"?>
<!DOCTYPE svg PUBLIC "-//W3C//DTD SVG 20010904//EN"
 "http://www.w3.org/TR/2001/REC-SVG-20010904/DTD/svg10.dtd">
<svg version="1.0" xmlns="http://www.w3.org/2000/svg"
 width="512.000000pt" height="512.000000pt" viewBox="0 0 512.000000 512.000000"
 preserveAspectRatio="xMidYMid meet">

<g transform="translate(0.000000,512.000000) scale(0.100000,-0.100000)"
fill="#000000" stroke="none">
<path d="M2335 4950 c-467 -52 -864 -210 -1240 -493 -115 -87 -358 -334 -449
-457 -318 -429 -477 -909 -477 -1440 0 -278 33 -494 116 -745 202 -614 643
-1122 1220 -1405 237 -116 462 -187 720 -226 167 -26 513 -26 680 0 508 77
955 297 1321 649 322 309 548 694 658 1120 64 244 71 303 71 607 0 304 -7 363
-70 607 -174 668 -641 1241 -1260 1543 -237 116 -466 188 -715 225 -133 20
-456 28 -575 15z m300 -530 c27 -13 49 -34 64 -60 21 -39 22 -44 19 -372 -3
-315 -4 -335 -23 -360 -24 -33 -91 -68 -130 -68 -46 0 -112 38 -137 78 -23 37
-23 41 -23 362 l0 325 24 39 c26 42 86 75 135 76 16 0 48 -9 71 -20z m-1220
-499 c49 -23 459 -433 474 -474 36 -95 -12 -191 -108 -217 -80 -21 -96 -10
-338 232 -124 123 -231 235 -239 250 -18 34 -18 101 0 136 43 82 128 112 211
73z m2434 -6 c41 -21 79 -70 87 -111 15 -79 -2 -103 -234 -336 -119 -120 -230
-224 -248 -233 -76 -36 -166 -8 -208 64 -25 43 -25 120 -1 158 25 37 423 431
460 454 36 23 105 25 144 4z m-1056 -509 c316 -93 555 -349 622 -666 19 -92
19 -268 0 -360 -67 -316 -303 -569 -622 -667 -79 -24 -104 -26 -238 -26 -134
0 -159 2 -238 26 -165 51 -285 125 -404 250 -315 332 -315 862 0 1194 141 148
305 237 504 273 90 17 279 4 376 -24z m-1301 -711 c33 -24 68 -91 68 -130 0
-46 -38 -112 -78 -137 -37 -23 -41 -23 -362 -23 -321 0 -325 0 -362 23 -41 25
-78 91 -78 139 0 45 40 113 80 135 33 17 58 18 370 16 317 -3 336 -4 362 -23z
m2870 -3 c40 -25 78 -91 78 -137 0 -39 -35 -106 -68 -130 -25 -19 -45 -20
-360 -23 -328 -3 -333 -2 -372 19 -43 24 -80 85 -80 132 0 72 54 140 124 158
17 4 168 7 336 6 299 -2 306 -2 342 -25z m-2552 -807 c62 -32 96 -109 80 -179
-7 -33 -43 -74 -232 -263 -123 -124 -235 -231 -250 -239 -35 -18 -101 -18
-137 1 -41 21 -79 70 -87 111 -15 79 2 103 234 336 119 120 229 224 246 232
40 20 109 20 146 1z m1645 -10 c34 -22 437 -428 456 -460 23 -36 25 -105 4
-144 -21 -41 -70 -79 -111 -87 -79 -15 -103 2 -336 234 -120 119 -224 230
-233 248 -29 62 -15 144 33 187 48 44 137 54 187 22z m-829 -336 c26 -12 53
-36 66 -57 23 -37 23 -41 23 -362 0 -321 0 -325 -23 -362 -25 -40 -91 -78
-137 -78 -39 0 -106 35 -130 68 -19 26 -20 45 -23 362 -3 382 -2 385 78 427
53 28 91 29 146 2z"/>
<path d="M2412 3100 c-184 -48 -335 -194 -393 -380 -28 -89 -28 -231 0 -320
42 -135 141 -259 264 -329 58 -33 188 -71 244 -71 l33 0 0 560 0 560 -37 -1
c-21 0 -71 -9 -111 -19z"/>
</g>
</svg>
